<svg width="1200" height="760" viewBox="0 0 1200 760" fill="none" xmlns="http://www.w3.org/2000/svg">
<rect width="1200" height="760" rx="42" fill="#0B1F17"/>
<rect x="44" y="44" width="1112" height="672" rx="30" fill="#F7F5EF"/>
<rect x="82" y="88" width="240" height="584" rx="22" fill="#173D2D"/>
<circle cx="130" cy="138" r="22" fill="#95BF47"/><rect x="166" y="124" width="92" height="16" rx="8" fill="#F7F5EF"/><rect x="116" y="202" width="148" height="18" rx="9" fill="#D9F99D" opacity=".9"/><rect x="116" y="260" width="108" height="18" rx="9" fill="#F7F5EF" opacity=".7"/><rect x="116" y="318" width="134" height="18" rx="9" fill="#F7F5EF" opacity=".7"/><rect x="116" y="376" width="92" height="18" rx="9" fill="#F7F5EF" opacity=".7"/>
<rect x="366" y="96" width="450" height="48" rx="24" fill="#0B1F17"/><rect x="390" y="112" width="214" height="16" rx="8" fill="#F7F5EF" opacity=".85"/><rect x="834" y="96" width="280" height="48" rx="24" fill="#95BF47"/>
<rect x="366" y="198" width="342" height="176" rx="28" fill="#EAF7DC"/><rect x="740" y="198" width="374" height="176" rx="28" fill="#F0E8D8"/><rect x="366" y="410" width="748" height="214" rx="28" fill="#FFFFFF"/>
<rect x="404" y="236" width="166" height="20" rx="10" fill="#173D2D"/><rect x="404" y="282" width="236" height="14" rx="7" fill="#173D2D" opacity=".45"/><rect x="404" y="318" width="194" height="14" rx="7" fill="#173D2D" opacity=".25"/>
<rect x="784" y="236" width="214" height="20" rx="10" fill="#173D2D"/><rect x="784" y="284" width="254" height="14" rx="7" fill="#173D2D" opacity=".45"/><rect x="784" y="320" width="182" height="14" rx="7" fill="#173D2D" opacity=".25"/>
<rect x="404" y="456" width="664" height="16" rx="8" fill="#173D2D"/><rect x="404" y="512" width="590" height="14" rx="7" fill="#173D2D" opacity=".35"/><rect x="404" y="558" width="420" height="14" rx="7" fill="#173D2D" opacity=".25"/>
<circle cx="1010" cy="562" r="62" fill="#95BF47"/><path d="M982 566l20 20 42-55" stroke="#0B1F17" stroke-width="14" stroke-linecap="round" stroke-linejoin="round"/>
</svg>